<?xml version="1.0" encoding="utf-8"?>
<!-- Generator: Adobe Illustrator 19.1.0, SVG Export Plug-In . SVG Version: 6.00 Build 0)  -->
<svg version="1.1" id="Layer_1" xmlns:sketch="http://www.bohemiancoding.com/sketch/ns"
	 xmlns="http://www.w3.org/2000/svg" xmlns:xlink="http://www.w3.org/1999/xlink" x="0px" y="0px" viewBox="-255 371.1 87.3 50"
	 style="enable-background:new -255 371.1 87.3 50;" xml:space="preserve">
<style type="text/css">
	.st0{fill:#FFBF00;}
	.st1{fill:#FFFFFF;}
	.st2{fill:#006400;}
</style>
<title>img_gunbroker_logo</title>
<desc>Created with bin/sketchtool.</desc>
<g id="Homepage" sketch:type="MSPage">
	<g id="Homepage---XL-Desktop" transform="translate(-27.000000, -28.000000)" sketch:type="MSArtboardGroup">
		<g id="Navigation" sketch:type="MSLayerGroup">
			
				<g id="GunBroker-Logo-_x2B_-img_x5F_gunbroker_x5F_logo" transform="translate(27.000000, 28.000000)" sketch:type="MSShapeGroup">
				<g id="GunBroker-Logo" transform="translate(0.000000, 1.000000)">
					<g id="Imported-Layers">
						<path id="Fill-1" class="st0" d="M-255,370.1v50c65,0,87.3-11.2,87.3-25C-167.7,381.3-190,370.1-255,370.1"/>
						<path id="Fill-2" class="st1" d="M-232.2,397.2c0,0.9-3.8,1.7-6.5,1.7c-5.7,0-8.7-2.5-8.7-7.8c0-5.2,3-7.9,8.7-7.9
							c2.5,0,6,0.6,6,1.5v2.8c0,0.3-0.1,0.4-0.6,0.4h-2.4c-0.5,0-0.5-0.1-0.5-0.4v-1.7c-0.7-0.2-1.5-0.3-2.2-0.3
							c-3.3,0-4.4,2.1-4.4,5.4c0,3.4,0.8,5.6,4.4,5.6c1.2,0,2-0.3,2.3-0.4v-3.4h-2.4c-0.6,0-0.7-0.1-0.7-0.5v-1.2
							c0-0.4,0.1-0.5,0.7-0.5h7.9c0.6,0,0.7,0.1,0.7,0.5v1.2c0,0.4-0.1,0.5-0.7,0.5h-1.6V397.2"/>
						<path id="Fill-3" class="st1" d="M-210.1,393.5c0,3.3-1.7,5.4-7.8,5.4c-6.1,0-7.8-2.2-7.8-5.4v-7.8h-1.7
							c-0.6,0-0.7-0.1-0.7-0.5v-1.2c0-0.4,0.1-0.5,0.7-0.5h7.7c0.5,0,0.7,0.1,0.7,0.5v1.2c0,0.4-0.1,0.5-0.7,0.5h-1.6v7.8
							c0,1.6,0.2,3.1,3.4,3.1c3.3,0,3.4-1.5,3.4-3.1v-7.8h-1.6c-0.6,0-0.7-0.1-0.7-0.5v-1.2c0-0.4,0.1-0.5,0.7-0.5h7.7
							c0.6,0,0.7,0.1,0.7,0.5v1.2c0,0.4-0.1,0.5-0.7,0.5h-1.7V393.5"/>
						<path id="Fill-4" class="st1" d="M-188.1,398.1c0,0.4-0.1,0.5-0.7,0.5h-2.1c-0.5,0-0.6,0-0.7-0.3l-6-7.4c-1-1.2-1.3-1.7-1.9-3
							h-0.1c0,0.7,0.2,1.4,0.2,2.4v6.2h1.6c0.6,0,0.7,0.1,0.7,0.5v1.2c0,0.4-0.1,0.5-0.7,0.5h-7c-0.6,0-0.7-0.1-0.7-0.5v-1.2
							c0-0.4,0.1-0.5,0.7-0.5h1.7v-10.8h-1.7c-0.6,0-0.7-0.1-0.7-0.5v-1.2c0-0.4,0.1-0.5,0.7-0.5h5c0.5,0,0.6,0,0.7,0.3l5.4,6.8
							c0.9,1.2,1.6,2.3,2,3.2h0.1c0-0.7-0.1-2.1-0.1-2.8v-5.3h-1.6c-0.6,0-0.7-0.1-0.7-0.5v-1.2c0-0.4,0.1-0.5,0.7-0.5h7
							c0.6,0,0.7,0.1,0.7,0.5v1.2c0,0.4-0.1,0.5-0.7,0.5h-1.7V398.1"/>
						<path id="Fill-5" class="st2" d="M-244.3,404.2v-1.7h0.4c0.6,0,1,0.2,1,0.8c0,0.8-0.5,0.9-1.1,0.9H-244.3L-244.3,404.2z
							 M-244.3,407.1v-1.8h0.4c0.7,0,1.3,0.1,1.3,0.9c0,0.8-0.6,0.9-1.3,0.9H-244.3L-244.3,407.1z M-246.3,401.5
							c-0.2,0-0.2,0-0.2,0.2v0.5c0,0.2,0,0.2,0.2,0.2h0.5v4.7h-0.5c-0.2,0-0.2,0-0.2,0.2v0.5c0,0.2,0,0.2,0.2,0.2h2.5
							c1.4,0,2.6-0.3,2.6-1.9c0-1.1-0.8-1.5-1.3-1.6c0.4-0.2,1.1-0.5,1.1-1.5c0-1.5-1.4-1.7-2.4-1.7H-246.3L-246.3,401.5z"/>
						<path id="Fill-6" class="st2" d="M-238.1,404.4v-1.8h0.4c0.5,0,1.1,0,1.1,0.9c0,0.9-0.6,1-1.3,1H-238.1L-238.1,404.4z
							 M-234.4,407.4c0-0.2,0-0.2-0.2-0.2h-0.5l-1.3-2c0.4-0.2,1.2-0.5,1.2-1.8c0-1.8-1.6-1.9-2.4-1.9h-2.5c-0.2,0-0.2,0-0.2,0.2
							v0.5c0,0.2,0,0.2,0.2,0.2h0.5v4.7h-0.5c-0.2,0-0.2,0-0.2,0.2v0.5c0,0.2,0,0.2,0.2,0.2h2.4c0.2,0,0.2,0,0.2-0.2v-0.5
							c0-0.2,0-0.2-0.2-0.2h-0.5v-1.8h0.5l1.4,2.6c0.1,0.1,0.1,0.1,0.2,0.1h1.3c0.2,0,0.2,0,0.2-0.2V407.4L-234.4,407.4z"/>
						<path id="Fill-7" class="st2" d="M-231.2,407.3c-0.8,0-1.1-0.9-1.1-2.4s0.3-2.5,1.1-2.5c0.8,0,1.1,0.9,1.1,2.5
							C-230,406.3-230.4,407.3-231.2,407.3L-231.2,407.3z M-228.6,404.8c0-2.3-1-3.5-2.6-3.5c-1.6,0-2.6,1.1-2.6,3.5
							c0,2.3,1,3.5,2.6,3.5C-229.5,408.3-228.6,407.1-228.6,404.8L-228.6,404.8z"/>
						<path id="Fill-8" class="st2" d="M-221.5,407.9c0,0.2,0,0.2-0.2,0.2h-1.1c-0.2,0-0.2,0-0.3-0.1l-2.3-2.8h0v2h0.5
							c0.2,0,0.2,0,0.2,0.2v0.5c0,0.2,0,0.2-0.2,0.2h-2.5c-0.2,0-0.2,0-0.2-0.2v-0.5c0-0.2,0-0.2,0.2-0.2h0.5v-4.7h-0.5
							c-0.2,0-0.2,0-0.2-0.2v-0.5c0-0.2,0-0.2,0.2-0.2h2.5c0.2,0,0.2,0,0.2,0.2v0.5c0,0.2,0,0.2-0.2,0.2h-0.5v2h0l2.2-2.8
							c0.1-0.1,0.1-0.1,0.2-0.1h1.1c0.2,0,0.2,0,0.2,0.2v0.5c0,0.2,0,0.2-0.2,0.2h-0.5l-1.9,2.3l2.2,2.5h0.3c0.2,0,0.2,0,0.2,0.2
							V407.9"/>
						<path id="Fill-9" class="st2" d="M-216.4,407.9c0,0.2,0,0.2-0.2,0.2h-4.2c-0.2,0-0.2,0-0.2-0.2v-0.5c0-0.2,0-0.2,0.2-0.2h0.5
							v-4.7h-0.5c-0.2,0-0.2,0-0.2-0.2v-0.5c0-0.2,0-0.2,0.2-0.2h4.2c0.2,0,0.2,0,0.2,0.2v1.5c0,0.2-0.1,0.2-0.2,0.2h-0.7
							c-0.2,0-0.2,0-0.2-0.2v-0.6h-1.3v1.6h1.8c0.2,0,0.2,0,0.2,0.2v0.6c0,0.2,0,0.2-0.2,0.2h-1.8v1.9h1.3v-0.7c0-0.2,0-0.2,0.2-0.2
							h0.7c0.2,0,0.2,0,0.2,0.2V407.9"/>
						<path id="Fill-10" class="st2" d="M-213.2,404.4v-1.8h0.4c0.5,0,1.1,0,1.1,0.9c0,0.9-0.6,1-1.3,1H-213.2L-213.2,404.4z
							 M-209.5,407.4c0-0.2,0-0.2-0.2-0.2h-0.5l-1.3-2c0.4-0.2,1.2-0.5,1.2-1.8c0-1.8-1.6-1.9-2.4-1.9h-2.5c-0.2,0-0.2,0-0.2,0.2
							v0.5c0,0.2,0,0.2,0.2,0.2h0.5v4.7h-0.5c-0.2,0-0.2,0-0.2,0.2v0.5c0,0.2,0,0.2,0.2,0.2h2.4c0.2,0,0.2,0,0.2-0.2v-0.5
							c0-0.2,0-0.2-0.2-0.2h-0.5v-1.8h0.5l1.4,2.6c0.1,0.1,0.1,0.1,0.2,0.1h1.3c0.2,0,0.2,0,0.2-0.2V407.4L-209.5,407.4z"/>
						<path id="Fill-11" class="st2" d="M-207.8,408.3c-0.5,0-1-0.4-1-0.9s0.5-0.9,1-0.9c0.5,0,1,0.4,1,0.9
							S-207.3,408.3-207.8,408.3"/>
						<path id="Fill-12" class="st2" d="M-201.2,407.7c0,0.3-0.9,0.6-1.8,0.6c-1.9,0-2.8-1.1-2.8-3.4c0-2.2,0.9-3.5,2.8-3.5
							c0.7,0,1.8,0.3,1.8,0.6v1.3c0,0.1,0,0.2-0.2,0.2h-0.8c-0.1,0-0.2,0-0.2-0.2v-0.8c-0.2-0.1-0.4-0.1-0.6-0.1
							c-1,0-1.4,0.6-1.4,2.2c0,1.6,0.2,2.6,1.5,2.6c0.2,0,0.4,0,0.6,0v-0.9c0-0.1,0-0.2,0.2-0.2h0.8c0.1,0,0.2,0,0.2,0.2V407.7"/>
						<path id="Fill-13" class="st2" d="M-197.7,407.3c-0.8,0-1.1-0.9-1.1-2.4s0.3-2.5,1.1-2.5c0.8,0,1.1,0.9,1.1,2.5
							C-196.6,406.3-196.9,407.3-197.7,407.3L-197.7,407.3z M-195.1,404.8c0-2.3-1-3.5-2.6-3.5c-1.6,0-2.6,1.1-2.6,3.5
							c0,2.3,1,3.5,2.6,3.5S-195.1,407.1-195.1,404.8L-195.1,404.8z"/>
						<path id="Fill-14" class="st2" d="M-187,407.9c0,0.2,0,0.2-0.2,0.2l-2.2,0c-0.2,0-0.2,0-0.2-0.2l0-0.5c0-0.2,0-0.2,0.2-0.2
							l0.5,0l-0.1-2.5c0-0.3,0-1.2,0-1.5h0c-0.1,0.3-0.2,1.2-0.3,1.5l-0.6,1.9c0,0.1,0,0.2-0.2,0.2l-0.7,0c-0.2,0-0.2,0-0.2-0.2
							l-0.6-1.9c-0.1-0.3-0.3-1.2-0.4-1.5h0c0,0.3,0,1.2,0,1.5l0,2.5l0.5,0c0.2,0,0.2,0,0.2,0.2l0,0.5c0,0.2,0,0.2-0.2,0.2l-2.2,0
							c-0.2,0-0.2,0-0.2-0.2l0-0.5c0-0.2,0-0.2,0.2-0.2l0.5,0l0.2-4.7l-0.5,0c-0.2,0-0.2,0-0.2-0.2l0-0.5c0-0.2,0-0.2,0.2-0.2l1.8,0
							c0.2,0,0.2,0,0.2,0.1l0.9,2.4c0.2,0.5,0.2,0.8,0.3,1.2h0c0.1-0.4,0.1-0.7,0.3-1.2l0.8-2.4c0.1-0.1,0.1-0.2,0.2-0.2l1.8,0
							c0.2,0,0.2,0,0.2,0.2l0,0.5c0,0.2,0,0.2-0.2,0.2l-0.5,0l0.3,4.7l0.5,0c0.2,0,0.2,0,0.2,0.2L-187,407.9"/>
						<path id="Fill-15" class="st2" d="M-186.2,402.4c0-0.5,0.4-1,1-1c0.5,0,1,0.4,1,1c0,0.5-0.4,1-1,1
							C-185.7,403.4-186.2,403-186.2,402.4L-186.2,402.4z M-185.2,403.2c0.5,0,0.8-0.4,0.8-0.8c0-0.5-0.4-0.8-0.8-0.8
							c-0.5,0-0.8,0.4-0.8,0.8C-186,402.9-185.6,403.2-185.2,403.2L-185.2,403.2z"/>
						<path id="Fill-16" class="st2" d="M-184.7,402.9C-184.7,403-184.7,403-184.7,402.9l-0.2,0c0,0,0,0,0,0l-0.2-0.4h-0.1v0.3h0.1
							c0,0,0,0,0,0v0.1c0,0,0,0,0,0h-0.4c0,0,0,0,0,0v-0.1c0,0,0,0,0,0h0.1V402h-0.1c0,0,0,0,0,0v-0.1c0,0,0,0,0,0h0.4
							c0.1,0,0.4,0,0.4,0.3c0,0.2-0.1,0.3-0.2,0.3l0.2,0.3h0.1C-184.7,402.8-184.7,402.8-184.7,402.9L-184.7,402.9L-184.7,402.9z
							 M-185.2,402.3c0.1,0,0.2,0,0.2-0.2c0-0.1-0.1-0.1-0.2-0.1h-0.1L-185.2,402.3L-185.2,402.3L-185.2,402.3z"/>
					</g>
				</g>
			</g>
		</g>
	</g>
</g>
</svg>
